<?xml version="1.0" encoding="utf-8"?>
<!-- Generator: Adobe Illustrator 24.0.1, SVG Export Plug-In . SVG Version: 6.00 Build 0)  -->
<svg version="1.1" id="Layer_1" xmlns="http://www.w3.org/2000/svg" xmlns:xlink="http://www.w3.org/1999/xlink" x="0px" y="0px"
	 viewBox="0 0 348 147" style="enable-background:new 0 0 348 147;" xml:space="preserve">
<style type="text/css">
	.st0{fill:#272D6C;}
	.st1{fill:#F29200;}
</style>
<g>
	<g>
		<path class="st0" d="M206.11,75.79h-10.8v16.47c0,2.36-0.56,4.14-1.67,5.36c-1.11,1.22-2.51,1.83-4.21,1.83
			c-1.77,0-3.2-0.6-4.29-1.81c-1.09-1.2-1.63-2.97-1.63-5.3V47.49c0-2.59,0.6-4.45,1.79-5.56c1.19-1.11,3.08-1.67,5.68-1.67h15.12
			c4.47,0,7.91,0.34,10.32,1.03c2.38,0.66,4.44,1.76,6.17,3.29c1.73,1.53,3.05,3.41,3.95,5.64c0.9,2.22,1.35,4.72,1.35,7.5
			c0,5.93-1.83,10.42-5.48,13.47C218.77,74.26,213.34,75.79,206.11,75.79z M203.25,49.12h-7.94V66.9h7.94c2.78,0,5.1-0.29,6.97-0.87
			c1.87-0.58,3.29-1.53,4.27-2.86c0.98-1.32,1.47-3.06,1.47-5.2c0-2.57-0.75-4.66-2.26-6.27C212,49.98,208.52,49.12,203.25,49.12z"
			/>
		<path class="st0" d="M236.99,92.85V45.86c0-2.17,0.48-3.81,1.45-4.92c0.97-1.11,2.27-1.67,3.91-1.67c1.64,0,2.96,0.55,3.97,1.65
			c1,1.1,1.51,2.75,1.51,4.94v46.99c0,2.2-0.51,3.84-1.53,4.94c-1.02,1.1-2.34,1.65-3.95,1.65c-1.59,0-2.88-0.57-3.87-1.71
			C237.49,96.6,236.99,94.97,236.99,92.85z"/>
		<path class="st0" d="M287.16,93.33v-1.39c-1.3,1.64-2.66,3.02-4.09,4.13c-1.43,1.11-2.99,1.94-4.68,2.48
			c-1.69,0.54-3.63,0.81-5.79,0.81c-2.62,0-4.97-0.54-7.04-1.63c-2.08-1.08-3.69-2.58-4.82-4.48c-1.35-2.3-2.02-5.61-2.02-9.92
			V61.86c0-2.17,0.49-3.79,1.47-4.86c0.98-1.07,2.28-1.61,3.89-1.61c1.64,0,2.96,0.54,3.97,1.63c1.01,1.09,1.51,2.7,1.51,4.84V79.2
			c0,2.51,0.21,4.62,0.63,6.33c0.42,1.71,1.18,3.04,2.28,4.01c1.1,0.97,2.59,1.45,4.47,1.45c1.83,0,3.55-0.54,5.16-1.63
			c1.61-1.08,2.79-2.5,3.53-4.25c0.61-1.53,0.91-4.89,0.91-10.08V61.86c0-2.14,0.5-3.76,1.51-4.84c1-1.08,2.31-1.63,3.93-1.63
			c1.61,0,2.91,0.54,3.89,1.61c0.98,1.07,1.47,2.69,1.47,4.86v31.39c0,2.06-0.47,3.61-1.41,4.64c-0.94,1.03-2.15,1.55-3.63,1.55
			c-1.48,0-2.71-0.54-3.67-1.61C287.64,96.76,287.16,95.26,287.16,93.33z"/>
		<path class="st0" d="M343,85.27c0,2.99-0.73,5.55-2.18,7.68c-1.46,2.13-3.61,3.74-6.45,4.84c-2.85,1.1-6.3,1.65-10.38,1.65
			c-3.89,0-7.22-0.6-10-1.79c-2.78-1.19-4.83-2.68-6.15-4.47c-1.32-1.79-1.98-3.58-1.98-5.38c0-1.19,0.42-2.21,1.27-3.06
			c0.85-0.85,1.92-1.27,3.21-1.27c1.14,0,2.01,0.28,2.62,0.83c0.61,0.56,1.19,1.34,1.75,2.34c1.11,1.93,2.44,3.37,3.99,4.33
			c1.55,0.95,3.66,1.43,6.33,1.43c2.17,0,3.95-0.48,5.34-1.45c1.39-0.97,2.08-2.07,2.08-3.31c0-1.9-0.72-3.29-2.16-4.17
			c-1.44-0.87-3.82-1.71-7.12-2.5c-3.73-0.93-6.77-1.9-9.11-2.92c-2.34-1.02-4.21-2.36-5.62-4.03c-1.4-1.67-2.1-3.72-2.1-6.15
			c0-2.17,0.65-4.22,1.94-6.15c1.3-1.93,3.21-3.47,5.74-4.62s5.58-1.73,9.15-1.73c2.8,0,5.32,0.29,7.56,0.87
			c2.24,0.58,4.1,1.36,5.6,2.34c1.49,0.98,2.63,2.06,3.41,3.25c0.78,1.19,1.17,2.36,1.17,3.49c0,1.24-0.42,2.26-1.25,3.06
			c-0.83,0.79-2.02,1.19-3.55,1.19c-1.11,0-2.06-0.32-2.84-0.95c-0.78-0.63-1.67-1.59-2.68-2.86c-0.82-1.06-1.79-1.91-2.9-2.54
			c-1.11-0.64-2.62-0.95-4.52-0.95c-1.96,0-3.59,0.42-4.88,1.25c-1.3,0.83-1.94,1.87-1.94,3.12c0,1.14,0.48,2.07,1.43,2.8
			c0.95,0.73,2.24,1.33,3.85,1.81c1.61,0.48,3.84,1.06,6.67,1.75c3.36,0.82,6.11,1.8,8.24,2.94c2.13,1.14,3.74,2.48,4.84,4.03
			C342.45,81.52,343,83.29,343,85.27z"/>
	</g>
	<path class="st0" d="M134.01,15.86v115.28c0,4.85-3.93,8.79-8.79,8.79H13.79c-4.85,0-8.79-3.93-8.79-8.79V15.86
		c0-4.85,3.93-8.79,8.79-8.79h111.44C130.08,7.07,134.01,11.01,134.01,15.86z"/>
	<path class="st1" d="M134.01,127.4v3.74c0,4.85-3.93,8.79-8.79,8.79h-27c-6.86-1.32-21.66-7.5-41.08-34.49L41.14,85.31H5V71.13
		h42.55c0,0,22.42-1.83,21.96-23.79c0,0,1.37-26.99-30.2-26.53H5v-4.94c0-4.85,3.93-8.79,8.79-8.79H59.9c0,0,45.29,0.46,43.92,38.89
		c0,0,2.75,23.79-26.53,32.48l29.74,34.31C107.02,112.76,118.41,127.99,134.01,127.4z"/>
	<g>
		<path class="st0" d="M164.7,75.38h-12.54c-1.9,0-3.35-0.44-4.35-1.33c-0.99-0.89-1.49-2.03-1.49-3.43c0-1.43,0.48-2.59,1.45-3.47
			c0.97-0.89,2.43-1.33,4.39-1.33h12.54c1.96,0,3.42,0.44,4.39,1.33c0.97,0.89,1.45,2.04,1.45,3.47c0,1.4-0.48,2.55-1.43,3.43
			C168.15,74.94,166.68,75.38,164.7,75.38z"/>
	</g>
</g>
</svg>
