<?xml version="1.0" encoding="utf-8"?>
<!-- Generator: Adobe Illustrator 24.0.1, SVG Export Plug-In . SVG Version: 6.00 Build 0)  -->
<svg version="1.1" id="Layer_1" xmlns="http://www.w3.org/2000/svg" xmlns:xlink="http://www.w3.org/1999/xlink" x="0px" y="0px"
	 viewBox="0 0 100 38" style="enable-background:new 0 0 100 38;" xml:space="preserve">
<style type="text/css">
	.st0{fill:#272D6C;}
	.st1{fill:#FFFFFF;}
	.st2{fill:#F29200;}
</style>
<rect class="st0" width="100" height="38"/>
<g>
	<g>
		<path class="st1" d="M58.7,19.62h-2.93v4.46c0,0.64-0.15,1.12-0.45,1.45c-0.3,0.33-0.68,0.49-1.14,0.49
			c-0.48,0-0.87-0.16-1.16-0.49c-0.29-0.33-0.44-0.8-0.44-1.44V11.95c0-0.7,0.16-1.2,0.48-1.51s0.84-0.45,1.54-0.45h4.1
			c1.21,0,2.14,0.09,2.8,0.28c0.65,0.18,1.2,0.48,1.67,0.89c0.47,0.42,0.83,0.92,1.07,1.53c0.24,0.6,0.37,1.28,0.37,2.03
			c0,1.61-0.49,2.82-1.48,3.65C62.13,19.21,60.66,19.62,58.7,19.62z M57.93,12.39h-2.15v4.82h2.15c0.75,0,1.38-0.08,1.89-0.24
			c0.51-0.16,0.89-0.42,1.16-0.77c0.27-0.36,0.4-0.83,0.4-1.41c0-0.7-0.2-1.26-0.61-1.7C60.3,12.63,59.35,12.39,57.93,12.39z"/>
		<path class="st1" d="M67.07,24.24V11.51c0-0.59,0.13-1.03,0.39-1.33s0.61-0.45,1.06-0.45c0.44,0,0.8,0.15,1.08,0.45
			c0.27,0.3,0.41,0.74,0.41,1.34v12.73c0,0.6-0.14,1.04-0.41,1.34c-0.28,0.3-0.63,0.45-1.07,0.45c-0.43,0-0.78-0.15-1.05-0.46
			C67.2,25.26,67.07,24.82,67.07,24.24z"/>
		<path class="st1" d="M80.66,24.37V24c-0.35,0.44-0.72,0.82-1.11,1.12c-0.39,0.3-0.81,0.53-1.27,0.67
			c-0.46,0.15-0.98,0.22-1.57,0.22c-0.71,0-1.35-0.15-1.91-0.44c-0.56-0.29-1-0.7-1.31-1.22c-0.37-0.62-0.55-1.52-0.55-2.69v-5.82
			c0-0.59,0.13-1.03,0.4-1.32c0.27-0.29,0.62-0.44,1.05-0.44c0.44,0,0.8,0.15,1.08,0.44c0.27,0.29,0.41,0.73,0.41,1.31v4.7
			c0,0.68,0.06,1.25,0.17,1.72c0.11,0.46,0.32,0.82,0.62,1.09c0.3,0.26,0.7,0.39,1.21,0.39c0.49,0,0.96-0.15,1.4-0.44
			c0.44-0.29,0.76-0.68,0.96-1.15c0.16-0.42,0.25-1.33,0.25-2.73v-3.57c0-0.58,0.14-1.02,0.41-1.31c0.27-0.29,0.63-0.44,1.06-0.44
			c0.44,0,0.79,0.15,1.05,0.44c0.27,0.29,0.4,0.73,0.4,1.32v8.51c0,0.56-0.13,0.98-0.38,1.26c-0.25,0.28-0.58,0.42-0.98,0.42
			c-0.4,0-0.73-0.15-0.99-0.44C80.79,25.3,80.66,24.9,80.66,24.37z"/>
		<path class="st1" d="M95.8,22.19c0,0.81-0.2,1.5-0.59,2.08c-0.39,0.58-0.98,1.01-1.75,1.31c-0.77,0.3-1.71,0.45-2.81,0.45
			c-1.05,0-1.96-0.16-2.71-0.48c-0.75-0.32-1.31-0.73-1.67-1.21c-0.36-0.48-0.54-0.97-0.54-1.46c0-0.32,0.11-0.6,0.34-0.83
			c0.23-0.23,0.52-0.34,0.87-0.34c0.31,0,0.54,0.08,0.71,0.23c0.16,0.15,0.32,0.36,0.47,0.63c0.3,0.52,0.66,0.91,1.08,1.17
			c0.42,0.26,0.99,0.39,1.72,0.39c0.59,0,1.07-0.13,1.45-0.39c0.38-0.26,0.56-0.56,0.56-0.9c0-0.52-0.2-0.89-0.59-1.13
			c-0.39-0.24-1.03-0.46-1.93-0.68c-1.01-0.25-1.83-0.51-2.47-0.79c-0.63-0.28-1.14-0.64-1.52-1.09c-0.38-0.45-0.57-1.01-0.57-1.67
			c0-0.59,0.18-1.14,0.53-1.67c0.35-0.52,0.87-0.94,1.55-1.25s1.51-0.47,2.48-0.47c0.76,0,1.44,0.08,2.05,0.24
			c0.61,0.16,1.11,0.37,1.52,0.63c0.41,0.27,0.71,0.56,0.92,0.88c0.21,0.32,0.32,0.64,0.32,0.95c0,0.34-0.11,0.61-0.34,0.83
			c-0.23,0.22-0.55,0.32-0.96,0.32c-0.3,0-0.56-0.09-0.77-0.26c-0.21-0.17-0.45-0.43-0.73-0.77c-0.22-0.29-0.48-0.52-0.79-0.69
			c-0.3-0.17-0.71-0.26-1.23-0.26c-0.53,0-0.97,0.11-1.32,0.34c-0.35,0.23-0.53,0.51-0.53,0.84c0,0.31,0.13,0.56,0.39,0.76
			c0.26,0.2,0.61,0.36,1.04,0.49c0.44,0.13,1.04,0.29,1.81,0.47c0.91,0.22,1.65,0.49,2.23,0.8c0.58,0.31,1.01,0.67,1.31,1.09
			C95.65,21.17,95.8,21.65,95.8,22.19z"/>
	</g>
	<path class="st1" d="M39.16,3.38v31.24c0,1.32-1.07,2.38-2.38,2.38H6.59c-1.32,0-2.38-1.07-2.38-2.38V3.38C4.2,2.07,5.27,1,6.59,1
		h30.2C38.1,1,39.16,2.07,39.16,3.38z"/>
	<path class="st2" d="M39.16,33.61v1.01c0,1.32-1.07,2.38-2.38,2.38h-7.32c-1.86-0.36-5.87-2.03-11.13-9.35L14,22.2H4.2v-3.84h11.53
		c0,0,6.07-0.5,5.95-6.45c0,0,0.37-7.31-8.18-7.19H4.2V3.38C4.2,2.07,5.27,1,6.59,1h12.5c0,0,12.27,0.12,11.9,10.54
		c0,0,0.74,6.45-7.19,8.8l8.06,9.3C31.85,29.64,34.94,33.77,39.16,33.61z"/>
	<g>
		<path class="st1" d="M47.48,19.51h-3.4c-0.52,0-0.91-0.12-1.18-0.36c-0.27-0.24-0.4-0.55-0.4-0.93c0-0.39,0.13-0.7,0.39-0.94
			c0.26-0.24,0.66-0.36,1.19-0.36h3.4c0.53,0,0.93,0.12,1.19,0.36c0.26,0.24,0.39,0.55,0.39,0.94c0,0.38-0.13,0.69-0.39,0.93
			C48.42,19.39,48.02,19.51,47.48,19.51z"/>
	</g>
</g>
</svg>
